<svg xmlns="http://www.w3.org/2000/svg" width="24" height="24" viewBox="0 0 24 24" fill="none" stroke="black" stroke-width="2" stroke-linecap="round" stroke-linejoin="round"><circle cx="12" cy="12" r="3"/><path d="M19.4 15a1.6 1.6 0 0 0 .3 1.8l.1.1-2 3.4-.2-.1a1.6 1.6 0 0 0-1.8.2 8 8 0 0 1-1.6.9 1.6 1.6 0 0 0-1 1.5V23h-4v-.2a1.6 1.6 0 0 0-1-1.5 8 8 0 0 1-1.6-.9 1.6 1.6 0 0 0-1.8-.2l-.2.1-2-3.4.1-.1A1.6 1.6 0 0 0 4.6 15 8 8 0 0 1 4.5 12c0-.5 0-1 .1-1.5a1.6 1.6 0 0 0-.3-1.8l-.1-.1 2-3.4.2.1a1.6 1.6 0 0 0 1.8-.2 8 8 0 0 1 1.6-.9 1.6 1.6 0 0 0 1-1.5V2h4v.2a1.6 1.6 0 0 0 1 1.5 8 8 0 0 1 1.6.9 1.6 1.6 0 0 0 1.8.2l.2-.1 2 3.4-.1.1a1.6 1.6 0 0 0-.3 1.8c.1.5.1 1 .1 1.5s0 1-.1 1.5Z"/></svg>
